<svg id="logosandtypes_com" data-name="logosandtypes com" xmlns="http://www.w3.org/2000/svg" viewBox="0 0 150 150"><defs><style>.cls-1{fill:none;}.cls-2{fill:#002e6e;fill-rule:evenodd;}</style></defs><g id="Layer_2" data-name="Layer 2"><path id="Layer_3" data-name="Layer 3" class="cls-1" d="M0,.2H150v150H0Z" transform="translate(0 -0.2)"/></g><g id="Symbols"><g id="Main-Nav-ON-STATES-_-Footer_Langauge" data-name="Main-Nav-ON-STATES-/-Footer_Langauge"><g id="logo"><path class="cls-2" d="M136.52,71.88a59.63,59.63,0,0,0-119.26,0v59.64H76.89a59.64,59.64,0,0,0,59.63-59.64m-34.09-9.23A7.37,7.37,0,1,1,95.07,70a7.37,7.37,0,0,1,7.36-7.37m0,19.72a7.37,7.37,0,1,1-7.36,7.37,7.37,7.37,0,0,1,7.36-7.37M45.71,79.82V47.38h13V79.82a9.09,9.09,0,1,0,9.09-9.08h-3.9v-13h3.9A22.07,22.07,0,1,1,45.71,79.82" transform="translate(0 -0.2)"/></g></g></g></svg>